<svg fill="none" height="86" viewBox="0 0 369 86" width="369" xmlns="http://www.w3.org/2000/svg" xmlns:xlink="http://www.w3.org/1999/xlink"><linearGradient id="a" gradientUnits="userSpaceOnUse" x1="79.5021" x2="79.5021" y1="29.0043" y2="86"><stop offset="0" stop-color="#c00050"/><stop offset="1" stop-color="#f92e83"/></linearGradient><g fill="url(#a)"><path d="m0 84.8626v-74.6791h5.84841v69.3611h36.55259v5.318z"/><path d="m162.895 50.5781v34.2845h-5.398v-8.5994c-4.124 6.4873-10.61 9.7309-19.457 9.7309-5.324 0-9.748-1.2823-13.272-3.8471-3.599-2.6402-5.398-6.2987-5.398-10.9756 0-4.4505 1.724-7.9959 5.173-10.6361 3.449-2.6401 8.023-3.9602 13.722-3.9602h18.894v-6.2233c0-5.1295-1.349-9.052-4.049-11.7676-2.624-2.791-6.26-4.1865-10.909-4.1865-6.298 0-11.809 3.055-16.533 9.1651l-3.936-3.1682c5.248-7.5433 12.184-11.315 20.806-11.315 6.224 0 11.172 1.8858 14.846 5.6575 3.674 3.6962 5.511 8.9766 5.511 15.841zm-5.736 13.9175v-3.0551h-18.332c-4.424 0-7.798.8298-10.122 2.4893-2.325 1.5841-3.487 3.8849-3.487 6.9022 0 3.2436 1.275 5.7707 3.824 7.5811 2.549 1.7349 5.736 2.6024 9.56 2.6024 5.099 0 9.447-1.5841 13.046-4.7523 3.674-3.1682 5.511-7.0907 5.511-11.7676z"/><path d="m227.732 0h5.624v84.8626h-5.399v-11.0887c-2.024 3.7717-5.061 6.7513-9.11 8.9389-3.974 2.1875-8.323 3.2813-13.046 3.2813-7.573 0-13.984-2.7533-19.233-8.2599-5.173-5.5067-7.76-12.2203-7.76-20.1408 0-7.9959 2.549-14.7472 7.648-20.2538 5.174-5.5067 11.622-8.26 19.345-8.26 4.648 0 8.922 1.0561 12.821 3.1682 3.974 2.1121 7.011 4.9786 9.11 8.5994zm0 57.5934c0-7.4679-2.062-13.2008-6.186-17.1988-4.123-3.998-9.185-5.9969-15.183-5.9969-6.223 0-11.397 2.2252-15.521 6.6758-4.124 4.3751-6.186 9.8441-6.186 16.4068s2.062 12.0693 6.186 16.5199 9.298 6.6759 15.521 6.6759c5.998 0 11.06-1.999 15.183-5.997 4.124-3.998 6.186-9.6932 6.186-17.0857z"/><path d="m301.376 58.8381h-45.438c.3 6.3364 2.55 11.579 6.748 15.7279 4.274 4.0734 9.485 6.1101 15.634 6.1101 7.273 0 13.309-2.8665 18.107-8.5994l3.599 3.7339c-5.773 6.789-13.046 10.1835-21.819 10.1835-7.723.1509-14.396-2.6024-20.019-8.2599-5.549-5.6576-8.248-12.3711-8.098-20.1408-.15-7.7696 2.512-14.4832 7.985-20.1407 5.474-5.7329 11.96-8.524 19.457-8.3731 6.824 0 12.56 2.263 17.208 6.789 4.724 4.526 7.086 10.3721 7.086 17.5383 0 2.4893-.15 4.2997-.45 5.4312zm-45.213-5.0918h39.814c.225-5.8083-1.499-10.4852-5.173-14.0306-3.599-3.6208-8.098-5.4312-13.496-5.4312-5.474 0-10.16 1.8481-14.059 5.5444-3.974 3.6208-6.336 8.2599-7.086 13.9174z"/><path d="m363.377 0h5.623v84.8626h-5.398v-11.0887c-2.025 3.7717-5.062 6.7513-9.111 8.9389-3.973 2.1875-8.322 3.2813-13.046 3.2813-7.573 0-13.984-2.7533-19.232-8.2599-5.174-5.5067-7.761-12.2203-7.761-20.1408 0-7.9959 2.55-14.7472 7.648-20.2538 5.174-5.5067 11.622-8.26 19.345-8.26 4.649 0 8.923 1.0561 12.822 3.1682 3.973 2.1121 7.01 4.9786 9.11 8.5994zm0 57.5934c0-7.4679-2.062-13.2008-6.186-17.1988s-9.185-5.9969-15.184-5.9969c-6.223 0-11.397 2.2252-15.52 6.6758-4.124 4.3751-6.186 9.8441-6.186 16.4068s2.062 12.0693 6.186 16.5199c4.123 4.4506 9.297 6.6759 15.52 6.6759 5.999 0 11.06-1.999 15.184-5.997s6.186-9.6932 6.186-17.0857z"/><path d="m51.0043 58c.2668 15.5094 12.9226 28 28.4957 28 15.7401 0 28.5-12.7599 28.5-28.5 0-15.5731-12.4906-28.2289-28-28.4957v5.9011c12.2507.2659 22.1 10.28 22.1 22.5946 0 12.4816-10.1184 22.6-22.6 22.6-12.3146 0-22.3287-9.8493-22.5946-22.1z"/></g></svg>